Coordinates
version=1
nRows=17
nColumns=40
inDegrees=yes

Units are S.I. units (second, meters, Newtons, ...)
Angles are in degrees.

endheader
time	pelvis_tilt	pelvis_list	pelvis_rotation	pelvis_tx	pelvis_ty	pelvis_tz	hip_flexion_r	hip_adduction_r	hip_rotation_r	knee_angle_r	knee_angle_r_beta	ankle_angle_r	subtalar_angle_r	mtp_angle_r	hip_flexion_l	hip_adduction_l	hip_rotation_l	knee_angle_l	knee_angle_l_beta	ankle_angle_l	subtalar_angle_l	mtp_angle_l	lumbar_extension	lumbar_bending	lumbar_rotation	arm_flex_r	arm_add_r	arm_rot_r	elbow_flex_r	pro_sup_r	wrist_flex_r	wrist_dev_r	arm_flex_l	arm_add_l	arm_rot_l	elbow_flex_l	pro_sup_l	wrist_flex_l	wrist_dev_l
     42.96500000	     -3.18399981	     -5.27620012	     -1.66815634	      1.06372222	      0.93555681	      0.39450089	     31.43462520	     -5.67844036	     -4.26083432	     59.02939634	     59.02939634	     -1.64884996	     -9.62661648	     -2.85782387	     12.08750168	     -6.72333205	     -9.85784826	     20.39229025	     20.39229025	     12.45790829	    -11.25378225	     -1.94719795	    -10.75873812	      5.65605702	      1.96694438	      2.59661449	    -11.78816203	     -0.78391432	     28.60933909	     46.44062584	      0.00000000	      0.00000000	     20.97063293	    -18.64932508	     -8.18332340	     52.11714510	     46.66323752	      0.00000000	      0.00000000
     42.97857143	     -3.29184821	     -5.35898542	     -2.11256183	      1.06291927	      0.93582171	      0.39485850	     31.70448864	     -5.43893806	     -4.41780097	     56.23888159	     56.23888159	     -1.29273300	     -9.17737653	     -2.86829560	     11.54357065	     -6.80463965	    -10.16422574	     19.93530037	     19.93530037	     12.58258112	    -11.31353338	     -1.93687366	    -10.87051152	      5.77740049	      2.30647327	      1.28643130	    -11.78530607	     -0.74475793	     27.70180274	     46.46208359	      0.00000000	      0.00000000	     21.92327139	    -18.94598195	     -8.62817421	     53.41141181	     46.73048003	      0.00000000	      0.00000000
     42.99214286	     -3.49594934	     -5.46665125	     -2.52527077	      1.06219628	      0.93590718	      0.39526992	     31.84104574	     -5.19555447	     -4.74646902	     52.89082206	     52.89082206	     -0.96099175	     -8.55414587	     -2.86612936	     11.12091421	     -6.92026728	    -10.45772305	     19.50625564	     19.50625564	     12.70429085	    -11.35215010	     -1.98360238	    -10.81790129	      5.92839495	      2.40289706	      0.08474344	    -11.78669653	     -0.75212167	     27.00450413	     46.48017961	      0.00000000	      0.00000000	     22.60096987	    -19.24190591	     -9.00929906	     54.73836742	     46.78849294	      0.00000000	      0.00000000
     43.00571429	     -3.69617151	     -5.51961688	     -2.94510318	      1.06149801	      0.93590329	      0.39587367	     31.78316789	     -4.95160892	     -5.08295245	     49.09253396	     49.09253396	     -0.57478000	     -7.69336043	     -3.03501877	     10.67299495	     -6.98876065	    -10.79716684	     19.04266508	     19.04266508	     12.79510292	    -11.34514412	     -2.09385517	    -10.82731846	      6.00611641	      2.60491583	     -1.08154452	    -11.78037990	     -0.79788483	     26.37405064	     46.49885782	      0.00000000	      0.00000000	     23.15011857	    -19.52543615	     -9.47921347	     56.47421583	     46.85803601	      0.00000000	      0.00000000
     43.01928571	     -4.05863036	     -5.54052537	     -3.35750515	      1.06077093	      0.93555977	      0.39665785	     31.73273147	     -4.66635271	     -5.43415287	     44.89945504	     44.89945504	     -0.16555849	     -6.65647419	     -3.00574498	     10.43677922	     -7.04490653	    -11.13124772	     18.63446610	     18.63446610	     12.89490740	    -11.35640156	     -2.19433945	    -10.61817115	      6.07184768	      2.64038461	     -2.16093835	    -11.68138094	     -0.83888453	     25.95206041	     46.50923658	      0.00000000	      0.00000000	     23.66202149	    -19.99968815	     -9.87268808	     57.76251873	     46.91402308	      0.00000000	      0.00000000
     43.03285714	     -4.21723722	     -5.47302350	     -3.77465844	      1.06032402	      0.93535907	      0.39753583	     31.11431028	     -4.46325257	     -5.96198507	     40.03606161	     40.03606161	     -0.61239785	     -5.49028478	     -5.57785660	      9.90064667	     -7.00235424	    -11.58568238	     18.10043463	     18.10043463	     12.70498770	    -11.35052122	     -3.10461592	    -10.77415815	      5.92277243	      2.04605789	     -2.82084835	    -11.59190628	     -1.45625816	     25.94030413	     46.54486052	      0.00000000	      0.00000000	     22.30645214	    -20.62865980	    -11.76944226	     62.92035098	     47.13938292	      0.00000000	      0.00000000
     43.04642857	     -4.62446727	     -5.45243937	     -4.14953558	      1.05983895	      0.93481374	      0.39862944	     30.64260973	     -4.07634459	     -6.44207927	     35.05582673	     35.05582673	     -0.25439288	     -3.93171568	     -5.12652532	      9.70947468	     -7.02863492	    -11.88550116	     17.69958807	     17.69958807	     12.81283309	    -11.34403703	     -3.17102746	    -10.45930140	      5.93756898	      2.09988072	     -3.73925182	    -11.54294917	     -1.45310394	     25.58383596	     46.55016238	      0.00000000	      0.00000000	     22.83883941	    -20.93457752	    -12.01685036	     63.62417998	     47.17517073	      0.00000000	      0.00000000
     43.06000000	     -4.76050693	     -5.29932766	     -4.47230030	      1.05976148	      0.93446738	      0.39966406	     29.65802591	     -3.93733034	     -7.40476423	     29.87338004	     29.87338004	      0.00240031	     -1.31034362	     -5.02174621	      9.13410253	     -6.88999281	    -12.33061332	     17.16398345	     17.16398345	     12.86977765	    -11.10804092	     -3.54758096	    -10.48671927	      5.74252707	      2.24649790	     -4.78598801	    -11.60569274	     -1.64499755	     25.62563831	     46.54869557	      0.00000000	      0.00000000	     22.98779178	    -20.99585163	    -12.61325746	     65.64250571	     47.25963398	      0.00000000	      0.00000000
     43.07357143	     -5.09255343	     -5.20109933	     -4.76547171	      1.05972208	      0.93371581	      0.40106821	     28.73653797	     -3.47048455	     -8.02052216	     24.63117076	     24.63117076	      0.07436570	      0.53729982	     -4.00023694	      8.91032566	     -6.85377282	    -12.58294993	     16.88138135	     16.88138135	     13.00761355	    -11.10783742	     -3.73645946	    -10.18555739	      5.62214068	      2.23122586	     -5.57365979	    -11.55572695	     -1.71055471	     25.58363348	     46.54605428	      0.00000000	      0.00000000	     23.25423017	    -21.27368721	    -12.83576450	     66.48152767	     47.29411058	      0.00000000	      0.00000000
     43.08714286	     -5.14175256	     -5.00157383	     -4.98427109	      1.06013348	      0.93314081	      0.40238336	     27.49417707	     -3.26778474	     -9.31106014	     19.80799562	     19.80799562	      0.43952766	      3.70649046	     -2.16357757	      8.24526660	     -6.67056047	    -12.97549609	     16.38406657	     16.38406657	     13.10332886	    -10.79333818	     -4.26691956	    -10.25735927	      5.39412892	      2.24476780	     -6.50907904	    -11.58010390	     -1.98210827	     26.20028875	     46.52468109	      0.00000000	      0.00000000	     23.13268914	    -21.42393670	    -13.31310453	     68.42825352	     47.36742656	      0.00000000	      0.00000000
     43.10071429	     -5.36438093	     -4.84268342	     -5.15987133	      1.06060873	      0.93213884	      0.40401848	     26.46835552	     -2.80494751	    -10.06776844	     15.44281833	     15.44281833	      0.38588035	      5.54684436	     -0.37005322	      7.91679065	     -6.57277831	    -13.15485555	     16.15470213	     16.15470213	     13.27602427	    -10.79630879	     -4.54631492	    -10.01202296	      5.22871787	      2.16832507	     -7.21251363	    -11.54336488	     -2.07424608	     26.38045546	     46.51384763	      0.00000000	      0.00000000	     23.19781933	    -21.56896875	    -13.47512867	     69.22094051	     47.39650292	      0.00000000	      0.00000000
     43.11428571	     -5.35109567	     -4.64366051	     -5.30362394	      1.06145263	      0.93136723	      0.40571781	     25.41616981	     -2.50198595	    -11.23533887	     12.12080268	     12.12080268	      0.74776798	      7.80508497	      2.28927288	      7.25073481	     -6.40759243	    -13.41906229	     15.81065712	     15.81065712	     13.44319048	    -10.62580332	     -4.97812932	    -10.02583877	      4.96897859	      2.15833236	     -7.92128512	    -11.54975147	     -2.23627286	     26.95842980	     46.48820685	      0.00000000	      0.00000000	     23.12791550	    -21.68022842	    -13.68625165	     70.37143473	     47.43707792	      0.00000000	      0.00000000
     43.12785714	     -5.65773839	     -4.31496690	     -5.41078614	      1.06222664	      0.92999246	      0.40753471	     25.01512526	     -2.29979584	    -11.92817498	      9.86877650	      9.86877650	      0.71231536	      8.77056600	      3.63779666	      7.04692020	     -6.14385171	    -13.57339136	     15.62834903	     15.62834903	     13.66516329	    -10.58619748	     -5.19448102	     -9.57772808	      4.63633477	      2.10608860	     -8.38027102	    -11.41796389	     -2.27339001	     27.18746879	     46.47362787	      0.00000000	      0.00000000	     23.10866798	    -21.69327116	    -13.73729132	     70.83728952	     47.45032491	      0.00000000	      0.00000000
     43.14142857	     -5.63463265	     -4.27258195	     -5.47616682	      1.06339096	      0.92937109	      0.40943383	     24.39387145	     -2.00172532	    -13.38809404	      8.70184584	      8.70184584	      1.91007782	     10.51197680	      8.05837585	      6.34309539	     -6.14639263	    -13.70767309	     15.25441537	     15.25441537	     13.75815675	    -10.42717728	     -5.69441132	     -9.56835356	      4.60577039	      2.03543622	     -9.14357784	    -11.56351277	     -2.44269626	     28.86990754	     46.38788260	      0.00000000	      0.00000000	     22.59175278	    -21.66328544	    -13.93567994	     72.15888961	     47.50426621	      0.00000000	      0.00000000
     43.15500000	     -5.73067333	     -4.22196155	     -5.48956831	      1.06458665	      0.92845331	      0.41157751	     23.89813518	     -1.62179455	    -13.89449483	      7.94254174	      7.94254174	      1.69888490	     10.37293667	      8.23158697	      5.91366849	     -6.18128232	    -13.66395282	     15.15536763	     15.15536763	     14.05403963	    -10.48679427	     -5.70334782	     -9.32537149	      4.57682249	      2.03171862	     -9.26305575	    -11.52211798	     -2.38313214	     28.91339805	     46.37777260	      0.00000000	      0.00000000	     22.52137288	    -21.52366077	    -13.89448357	     72.13070800	     47.50390443	      0.00000000	      0.00000000
     43.16857143	     -5.78136577	     -4.18352651	     -5.44425979	      1.06594273	      0.92758880	      0.41376138	     23.52788545	     -1.36328310	    -14.38276424	      8.02997503	      8.02997503	      1.64577853	     10.02571903	      8.10497817	      5.45809356	     -6.23974478	    -13.59082189	     15.10745931	     15.10745931	     14.35799046	    -10.49758370	     -5.74355837	     -9.09723611	      4.57344629	      2.00328786	     -9.25621747	    -11.48012470	     -2.36013210	     28.97020331	     46.37275472	      0.00000000	      0.00000000	     22.31749916	    -21.29901897	    -13.81269113	     72.07559713	     47.49679354	      0.00000000	      0.00000000
     43.18214286	     -5.75280517	     -4.26375314	     -5.35120506	      1.06756250	      0.92690145	      0.41609351	     23.04114065	     -1.04991980	    -14.79054320	      8.46392785	      8.46392785	      1.58348202	      9.51489275	      7.72545518	      4.88065826	     -6.42738928	    -13.48468123	     15.02937859	     15.02937859	     14.68166097	    -10.47162240	     -5.71906199	     -8.94300436	      4.71506539	      1.98591775	     -9.12548685	    -11.47261562	     -2.33437329	     29.08977123	     46.36588086	      0.00000000	      0.00000000	     21.97906085	    -20.97559216	    -13.68942655	     71.94481196	     47.48460888	      0.00000000	      0.00000000
